<svg width="141" height="127" viewBox="0 0 141 127" fill="none" xmlns="http://www.w3.org/2000/svg">
<path d="M115.171 0.881348L88.9967 15.878L89.0466 54.9194L52.6148 15.3681L25.9107 0.891346L0.65625 15.1682V96.3602L26.1806 110.607L52.3748 96.1103V89.4517L87.9469 126.743L140.625 96.3302V15.1682L115.171 0.881348ZM91.4461 18.6774L116.111 32.8243V84.2929L91.4862 57.5688L91.4461 18.6774ZM3.10572 17.9776L25.4608 30.8847L87.0771 97.09L87.0971 122.284L25.0409 57.2189V107.158L3.10572 94.9305V17.9776ZM49.9254 87.1022V94.6806L27.3704 107.158V63.2775L50.0653 87.1022H49.9254ZM138.296 94.9405L89.5265 123.084L89.5066 96.1403L26.9904 28.9751L4.33543 15.898L25.9506 3.67073L51.125 17.3177L118.56 90.5115V31.4146L92.6758 16.5779L115.241 3.66073L138.296 16.5779V94.9405Z" fill="white"/>
</svg>
